# xmcd
#
# Track frame offsets:
#	150
#	20520
#	41065
#	62178
#
# Disc length: 1128 seconds
#
# Revision: 0
# Processed by: cddbd v1.5.2PL0 Copyright (c) Steve Scherf et al.
# Submitted via: audiograbber 1.83.01
#
DISCID=31046604
DTITLE=Universal Mind - Get Your Prey
DYEAR=2004
DGENRE=Rock
TTITLE0=Shadows
TTITLE1=Nightingale
TTITLE2=City Universe
TTITLE3=Sold People
EXTD=
EXTT0=
EXTT1=
EXTT2=
EXTT3=
PLAYORDER=
